<svg width="399" height="399" viewBox="0 0 399 399" fill="none" xmlns="http://www.w3.org/2000/svg">
<rect width="398.664" height="398.664" rx="140" fill="url(#paint0_linear_4408_1599)"/>
<g filter="url(#filter0_di_4408_1599)">
<path d="M28.4771 210.559C26.1458 205.271 30.0183 199.332 35.7973 199.332H88.2649C91.2864 199.332 94.0502 201.034 95.4095 203.733L113.673 239.989C116.354 245.309 112.486 251.588 106.529 251.588H51.7814C48.6112 251.588 45.7401 249.716 44.4612 246.815L28.4771 210.559Z" fill="#E2E2E2"/>
</g>
<g filter="url(#filter1_di_4408_1599)">
<path d="M370.187 210.559C372.518 205.271 368.646 199.332 362.867 199.332H310.399C307.378 199.332 304.614 201.034 303.255 203.733L284.991 239.989C282.31 245.309 286.178 251.588 292.135 251.588H346.883C350.053 251.588 352.924 249.716 354.203 246.815L370.187 210.559Z" fill="#E2E2E2"/>
</g>
<g filter="url(#filter2_di_4408_1599)">
<path d="M123.681 260.663C121.672 255.424 125.54 249.799 131.15 249.799H267.42C273.057 249.799 276.926 255.472 274.869 260.719L260.656 296.975C259.455 300.039 256.499 302.055 253.208 302.055H145.05C141.737 302.055 138.766 300.013 137.58 296.919L123.681 260.663Z" fill="#E2E2E2"/>
</g>
<g filter="url(#filter3_di_4408_1599)">
<path d="M301.188 159.672C303.328 164.933 299.457 170.687 293.777 170.687L104.986 170.687C99.28 170.687 95.4085 164.883 97.5999 159.614L118.236 109.997C119.477 107.014 122.391 105.069 125.623 105.069L273.595 105.069C276.85 105.069 279.78 107.041 281.006 110.055L301.188 159.672Z" fill="#E2E2E2"/>
</g>
<defs>
<filter id="filter0_di_4408_1599" x="16.7891" y="192.332" width="108.75" height="74.256" filterUnits="userSpaceOnUse" color-interpolation-filters="sRGB">
<feFlood flood-opacity="0" result="BackgroundImageFix"/>
<feColorMatrix in="SourceAlpha" type="matrix" values="0 0 0 0 0 0 0 0 0 0 0 0 0 0 0 0 0 0 127 0" result="hardAlpha"/>
<feOffset dy="4"/>
<feGaussianBlur stdDeviation="5.5"/>
<feComposite in2="hardAlpha" operator="out"/>
<feColorMatrix type="matrix" values="0 0 0 0 0 0 0 0 0 0 0 0 0 0 0 0 0 0 0.5 0"/>
<feBlend mode="normal" in2="BackgroundImageFix" result="effect1_dropShadow_4408_1599"/>
<feBlend mode="normal" in="SourceGraphic" in2="effect1_dropShadow_4408_1599" result="shape"/>
<feColorMatrix in="SourceAlpha" type="matrix" values="0 0 0 0 0 0 0 0 0 0 0 0 0 0 0 0 0 0 127 0" result="hardAlpha"/>
<feOffset dy="6"/>
<feGaussianBlur stdDeviation="6.5"/>
<feComposite in2="hardAlpha" operator="arithmetic" k2="-1" k3="1"/>
<feColorMatrix type="matrix" values="0 0 0 0 1 0 0 0 0 1 0 0 0 0 1 0 0 0 1 0"/>
<feBlend mode="normal" in2="shape" result="effect2_innerShadow_4408_1599"/>
</filter>
<filter id="filter1_di_4408_1599" x="273.125" y="192.332" width="108.75" height="74.256" filterUnits="userSpaceOnUse" color-interpolation-filters="sRGB">
<feFlood flood-opacity="0" result="BackgroundImageFix"/>
<feColorMatrix in="SourceAlpha" type="matrix" values="0 0 0 0 0 0 0 0 0 0 0 0 0 0 0 0 0 0 127 0" result="hardAlpha"/>
<feOffset dy="4"/>
<feGaussianBlur stdDeviation="5.5"/>
<feComposite in2="hardAlpha" operator="out"/>
<feColorMatrix type="matrix" values="0 0 0 0 0 0 0 0 0 0 0 0 0 0 0 0 0 0 0.5 0"/>
<feBlend mode="normal" in2="BackgroundImageFix" result="effect1_dropShadow_4408_1599"/>
<feBlend mode="normal" in="SourceGraphic" in2="effect1_dropShadow_4408_1599" result="shape"/>
<feColorMatrix in="SourceAlpha" type="matrix" values="0 0 0 0 0 0 0 0 0 0 0 0 0 0 0 0 0 0 127 0" result="hardAlpha"/>
<feOffset dy="6"/>
<feGaussianBlur stdDeviation="6.5"/>
<feComposite in2="hardAlpha" operator="arithmetic" k2="-1" k3="1"/>
<feColorMatrix type="matrix" values="0 0 0 0 1 0 0 0 0 1 0 0 0 0 1 0 0 0 1 0"/>
<feBlend mode="normal" in2="shape" result="effect2_innerShadow_4408_1599"/>
</filter>
<filter id="filter2_di_4408_1599" x="112.145" y="242.799" width="174.285" height="74.256" filterUnits="userSpaceOnUse" color-interpolation-filters="sRGB">
<feFlood flood-opacity="0" result="BackgroundImageFix"/>
<feColorMatrix in="SourceAlpha" type="matrix" values="0 0 0 0 0 0 0 0 0 0 0 0 0 0 0 0 0 0 127 0" result="hardAlpha"/>
<feOffset dy="4"/>
<feGaussianBlur stdDeviation="5.5"/>
<feComposite in2="hardAlpha" operator="out"/>
<feColorMatrix type="matrix" values="0 0 0 0 0 0 0 0 0 0 0 0 0 0 0 0 0 0 0.5 0"/>
<feBlend mode="normal" in2="BackgroundImageFix" result="effect1_dropShadow_4408_1599"/>
<feBlend mode="normal" in="SourceGraphic" in2="effect1_dropShadow_4408_1599" result="shape"/>
<feColorMatrix in="SourceAlpha" type="matrix" values="0 0 0 0 0 0 0 0 0 0 0 0 0 0 0 0 0 0 127 0" result="hardAlpha"/>
<feOffset dy="6"/>
<feGaussianBlur stdDeviation="6.5"/>
<feComposite in2="hardAlpha" operator="arithmetic" k2="-1" k3="1"/>
<feColorMatrix type="matrix" values="0 0 0 0 1 0 0 0 0 1 0 0 0 0 1 0 0 0 1 0"/>
<feBlend mode="normal" in2="shape" result="effect2_innerShadow_4408_1599"/>
</filter>
<filter id="filter3_di_4408_1599" x="85.9766" y="98.0694" width="226.809" height="87.6171" filterUnits="userSpaceOnUse" color-interpolation-filters="sRGB">
<feFlood flood-opacity="0" result="BackgroundImageFix"/>
<feColorMatrix in="SourceAlpha" type="matrix" values="0 0 0 0 0 0 0 0 0 0 0 0 0 0 0 0 0 0 127 0" result="hardAlpha"/>
<feOffset dy="4"/>
<feGaussianBlur stdDeviation="5.5"/>
<feComposite in2="hardAlpha" operator="out"/>
<feColorMatrix type="matrix" values="0 0 0 0 0 0 0 0 0 0 0 0 0 0 0 0 0 0 0.5 0"/>
<feBlend mode="normal" in2="BackgroundImageFix" result="effect1_dropShadow_4408_1599"/>
<feBlend mode="normal" in="SourceGraphic" in2="effect1_dropShadow_4408_1599" result="shape"/>
<feColorMatrix in="SourceAlpha" type="matrix" values="0 0 0 0 0 0 0 0 0 0 0 0 0 0 0 0 0 0 127 0" result="hardAlpha"/>
<feOffset dy="6"/>
<feGaussianBlur stdDeviation="6.5"/>
<feComposite in2="hardAlpha" operator="arithmetic" k2="-1" k3="1"/>
<feColorMatrix type="matrix" values="0 0 0 0 1 0 0 0 0 1 0 0 0 0 1 0 0 0 1 0"/>
<feBlend mode="normal" in2="shape" result="effect2_innerShadow_4408_1599"/>
</filter>
<linearGradient id="paint0_linear_4408_1599" x1="-2.08217" y1="-2.22771e-06" x2="396.582" y2="398.664" gradientUnits="userSpaceOnUse">
<stop stop-color="#637CF7"/>
<stop offset="1" stop-color="#2F46B3"/>
</linearGradient>
</defs>
</svg>
